<?xml version="1.0" encoding="UTF-8" standalone="no"?>
<svg
   xmlns:dc="http://purl.org/dc/elements/1.1/"
   xmlns:cc="http://creativecommons.org/ns#"
   xmlns:rdf="http://www.w3.org/1999/02/22-rdf-syntax-ns#"
   xmlns:svg="http://www.w3.org/2000/svg"
   xmlns="http://www.w3.org/2000/svg"
   id="svg8"
   version="1.1"
   viewBox="0 0 29.530381 29.530718"
   height="111.61216"
   width="111.61089">
  <metadata
     id="metadata899">
    <rdf:RDF>
      <cc:Work
         rdf:about="">
        <dc:format>image/svg+xml</dc:format>
        <dc:type
           rdf:resource="http://purl.org/dc/dcmitype/StillImage" />
        <dc:title></dc:title>
      </cc:Work>
    </rdf:RDF>
  </metadata>
  <defs
     id="defs2">
    <filter
       id="filter4502"
       style="color-interpolation-filters:sRGB">
      <feFlood
         id="feFlood4492"
         result="flood"
         flood-color="rgb(0,0,0)"
         flood-opacity="0.14000000000000001" />
      <feComposite
         id="feComposite4494"
         result="composite1"
         operator="in"
         in2="SourceGraphic"
         in="flood" />
      <feGaussianBlur
         id="feGaussianBlur4496"
         result="blur"
         stdDeviation="1"
         in="composite1" />
      <feOffset
         id="feOffset4498"
         result="offset"
         dy="0.1"
         dx="0.1" />
      <feComposite
         id="feComposite4500"
         result="composite2"
         operator="over"
         in2="offset"
         in="SourceGraphic" />
    </filter>
  </defs>
  <g
     transform="translate(-73.781585,-135.32332)"
     id="layer1">
    <g
       id="g823"
       transform="matrix(0.35277777,0,0,-0.35277777,-366.87438,299.38339)">
      <g
         transform="translate(901.6803,-102.46771)"
         id="g1625">
        <g
           transform="translate(6.526977,-2.545833)"
           id="g1549">
          <path
             id="path1685"
             style="fill:#ffffff;fill-opacity:1;fill-rule:evenodd;stroke:none;filter:url(#filter4502)"
             d="m 444.90979,546.3765 c 0.722,0.45 1.554,0.7 2.466,0.7 2.596,0 4.703,-2.106 4.703,-4.703 0,-0.888 -0.239,-1.706 -0.666,-2.415 l 0.021,-0.016 c 3.691,-5.012 5.815,-11.215 5.815,-17.919 0,-16.696 -13.534,-30.23 -30.232,-30.23 -16.695,0 -30.23,13.534 -30.23,30.23 0,16.698 13.535,30.232 30.23,30.232 6.692,0 12.887,-2.2 17.893,-5.879"
             transform="matrix(1.1537297,0,0,1.1537428,-109.91275,-74.070849)" />
          <path
             id="path1689"
             style="fill:#cc212d;fill-opacity:1;fill-rule:evenodd;stroke:none;stroke-width:1.15373623"
             d="m 408.09226,546.62201 c -0.5734,-0.20767 -1.24949,-0.34497 -1.89673,-0.34497 -2.97547,0 -5.38561,2.41132 -5.38561,5.38683 0,0.66917 0.12345,1.3118 0.34612,1.90367 -5.16987,3.76005 -11.53961,5.98447 -18.4216,5.98447 -17.3071,0 -31.33876,-14.02952 -31.33876,-31.33912 0,-17.30614 14.03166,-31.33681 31.33876,-31.33681 17.30594,0 31.33876,14.03067 31.33876,31.33681 0,6.874 -2.23132,13.24381 -5.98094,18.40912" />
          <path
             id="path1693"
             style="fill:#cc212d;fill-opacity:1;fill-rule:nonzero;stroke:none;stroke-width:1.15373623"
             d="m 403.27452,551.73609 c 0,1.63601 1.32563,2.96166 2.96162,2.96166 1.6383,0 2.96739,-1.32565 2.96739,-2.96166 0,-1.63601 -1.32909,-2.9605 -2.96739,-2.9605 -1.63599,0 -2.96162,1.32449 -2.96162,2.9605" />
          <g
             id="g1695"
             transform="matrix(1.1537297,0,0,1.1537428,365.68254,510.64081)">
            <path
               d="m 0,0 c 0.168,0.168 0.356,0.293 0.565,0.375 0.215,0.086 0.431,0.13 0.651,0.13 0.219,0 0.432,-0.044 0.642,-0.13 C 2.07,0.293 2.263,0.168 2.431,0 L 2.668,-0.237 2.193,-0.718 1.949,-0.481 C 1.848,-0.379 1.732,-0.303 1.604,-0.252 1.478,-0.2 1.348,-0.175 1.216,-0.175 1.083,-0.175 0.953,-0.2 0.826,-0.252 0.698,-0.303 0.584,-0.379 0.481,-0.481 0.38,-0.579 0.304,-0.691 0.252,-0.817 0.202,-0.945 0.177,-1.074 0.177,-1.206 c 0,-0.134 0.025,-0.263 0.075,-0.391 0.052,-0.128 0.128,-0.242 0.229,-0.343 0.206,-0.204 0.45,-0.306 0.735,-0.306 0.138,0 0.269,0.025 0.397,0.076 0.127,0.052 0.24,0.127 0.336,0.23 L 2.193,-1.703 2.668,-2.187 2.431,-2.423 C 2.263,-2.591 2.07,-2.719 1.858,-2.805 1.648,-2.886 1.435,-2.927 1.216,-2.927 c -0.22,0 -0.436,0.041 -0.651,0.122 -0.209,0.086 -0.397,0.214 -0.565,0.382 -0.168,0.169 -0.292,0.358 -0.374,0.566 -0.081,0.209 -0.122,0.423 -0.122,0.643 0,0.224 0.041,0.44 0.122,0.65 C -0.292,-0.356 -0.168,-0.169 0,0"
               style="fill:#ffffff;fill-opacity:1;fill-rule:evenodd;stroke:none"
               id="path1697" />
          </g>
          <g
             id="g1699"
             transform="matrix(1.1537297,0,0,1.1537428,370.49693,510.07744)">
            <path
               d="m 0,0 c -0.203,-0.204 -0.306,-0.449 -0.306,-0.734 0,-0.159 0.036,-0.308 0.108,-0.451 0.061,0.061 0.152,0.153 0.275,0.275 0.127,0.129 0.26,0.26 0.397,0.396 0.143,0.144 0.278,0.279 0.405,0.407 C 1.012,0.02 1.113,0.119 1.186,0.19 0.99,0.288 0.786,0.321 0.566,0.29 0.352,0.26 0.163,0.163 0,0 M 1.704,-1.23 2.187,-1.712 1.949,-1.949 C 1.786,-2.112 1.601,-2.236 1.392,-2.324 1.183,-2.411 0.963,-2.453 0.733,-2.453 c -0.227,0 -0.447,0.042 -0.656,0.129 -0.209,0.088 -0.394,0.212 -0.558,0.375 -0.168,0.169 -0.293,0.357 -0.374,0.565 -0.082,0.214 -0.123,0.431 -0.123,0.65 0,0.218 0.041,0.433 0.123,0.641 0.081,0.209 0.206,0.398 0.374,0.566 0.168,0.169 0.357,0.293 0.565,0.376 0.215,0.086 0.431,0.128 0.649,0.128 0.221,0 0.434,-0.042 0.643,-0.128 C 1.59,0.766 1.781,0.642 1.949,0.473 L 2.187,0.236 0.283,-1.667 c 0.194,-0.096 0.398,-0.129 0.612,-0.099 0.218,0.037 0.411,0.136 0.573,0.298 z"
               style="fill:#ffffff;fill-opacity:1;fill-rule:evenodd;stroke:none"
               id="path1701" />
          </g>
          <g
             id="g1703"
             transform="matrix(1.1537297,0,0,1.1537428,373.72715,509.24028)">
            <path
               d="m 0,0 c 0,0.238 0.044,0.46 0.13,0.663 0.092,0.21 0.214,0.391 0.367,0.543 0.159,0.158 0.342,0.28 0.551,0.367 0.208,0.092 0.431,0.138 0.664,0.138 0.24,0 0.461,-0.046 0.665,-0.138 C 2.587,1.486 2.769,1.364 2.927,1.206 3.085,1.054 3.208,0.873 3.295,0.663 3.386,0.46 3.432,0.238 3.432,0 V -1.72 H 2.751 V 0 C 2.751,0.142 2.724,0.274 2.668,0.396 2.616,0.523 2.543,0.633 2.445,0.725 2.354,0.821 2.244,0.896 2.117,0.947 1.99,1.002 1.854,1.03 1.712,1.03 1.569,1.03 1.435,1.002 1.307,0.947 1.186,0.896 1.075,0.821 0.979,0.725 0.887,0.633 0.812,0.523 0.757,0.396 0.705,0.274 0.681,0.142 0.681,0 V -1.72 H 0 Z"
               style="fill:#ffffff;fill-opacity:1;fill-rule:evenodd;stroke:none"
               id="path1705" />
          </g>
          <g
             id="g1707"
             transform="matrix(1.1537297,0,0,1.1537428,378.97753,510.64081)">
            <path
               d="m 0,0 c 0.168,0.168 0.356,0.293 0.565,0.375 0.214,0.086 0.43,0.13 0.65,0.13 0.219,0 0.432,-0.044 0.642,-0.13 C 2.07,0.293 2.262,0.168 2.431,0 L 2.666,-0.237 2.193,-0.718 1.949,-0.481 C 1.847,-0.379 1.732,-0.303 1.604,-0.252 1.477,-0.2 1.348,-0.175 1.215,-0.175 1.082,-0.175 0.952,-0.2 0.825,-0.252 0.697,-0.303 0.583,-0.379 0.481,-0.481 0.379,-0.579 0.303,-0.691 0.252,-0.817 0.2,-0.945 0.175,-1.074 0.175,-1.206 c 0,-0.134 0.025,-0.263 0.077,-0.391 0.051,-0.128 0.127,-0.242 0.229,-0.343 0.204,-0.204 0.448,-0.306 0.734,-0.306 0.138,0 0.269,0.025 0.397,0.076 0.127,0.052 0.24,0.127 0.337,0.23 L 2.193,-1.703 2.666,-2.187 2.431,-2.423 C 2.262,-2.591 2.07,-2.719 1.857,-2.805 1.647,-2.886 1.434,-2.927 1.215,-2.927 c -0.22,0 -0.436,0.041 -0.65,0.122 -0.209,0.086 -0.397,0.214 -0.565,0.382 -0.168,0.169 -0.294,0.358 -0.375,0.566 -0.082,0.209 -0.121,0.423 -0.121,0.643 0,0.224 0.039,0.44 0.121,0.65 C -0.294,-0.356 -0.168,-0.169 0,0"
               style="fill:#ffffff;fill-opacity:1;fill-rule:evenodd;stroke:none"
               id="path1709" />
          </g>
          <g
             id="g1711"
             transform="matrix(1.1537297,0,0,1.1537428,383.43013,509.23013)">
            <path
               d="m 0,0 c 0,-0.143 0.024,-0.277 0.077,-0.405 0.055,-0.126 0.129,-0.239 0.221,-0.336 0.097,-0.092 0.209,-0.165 0.336,-0.221 0.127,-0.052 0.262,-0.077 0.405,-0.077 0.143,0 0.278,0.025 0.404,0.077 0.127,0.056 0.238,0.129 0.329,0.221 0.097,0.097 0.171,0.21 0.222,0.336 C 2.05,-0.277 2.077,-0.143 2.077,0 2.077,0.143 2.05,0.275 1.994,0.397 1.943,0.524 1.869,0.635 1.772,0.726 1.681,0.822 1.57,0.896 1.443,0.948 1.317,1.004 1.182,1.032 1.039,1.032 0.896,1.032 0.761,1.004 0.634,0.948 0.507,0.896 0.395,0.822 0.298,0.726 0.206,0.635 0.132,0.524 0.077,0.397 0.024,0.275 0,0.143 0,0 m -0.673,0 c 0,0.24 0.044,0.462 0.13,0.664 0.092,0.21 0.215,0.392 0.367,0.543 0.158,0.158 0.341,0.28 0.551,0.368 0.208,0.09 0.43,0.137 0.664,0.137 0.238,0 0.46,-0.047 0.665,-0.137 C 1.913,1.487 2.096,1.365 2.254,1.207 2.412,1.056 2.535,0.874 2.621,0.664 2.713,0.462 2.758,0.24 2.758,0 2.758,-0.233 2.713,-0.455 2.621,-0.665 2.535,-0.873 2.412,-1.058 2.254,-1.215 2.096,-1.372 1.913,-1.497 1.704,-1.59 1.499,-1.677 1.277,-1.719 1.039,-1.719 c -0.234,0 -0.456,0.042 -0.664,0.129 -0.21,0.093 -0.393,0.218 -0.551,0.375 -0.152,0.157 -0.275,0.342 -0.367,0.55 -0.086,0.21 -0.13,0.432 -0.13,0.665"
               style="fill:#ffffff;fill-opacity:1;fill-rule:evenodd;stroke:none"
               id="path1713" />
          </g>
          <g
             id="g1715"
             transform="matrix(1.1537297,0,0,1.1537428,390.73,511.22333)">
            <path
               d="m 0,0 v -0.68 h -2.071 c -0.096,0 -0.178,-0.033 -0.244,-0.099 -0.067,-0.067 -0.1,-0.149 -0.1,-0.245 0,-0.096 0.033,-0.181 0.1,-0.252 0.066,-0.066 0.148,-0.099 0.244,-0.099 h 1.377 c 0.141,0 0.274,-0.028 0.396,-0.085 0.127,-0.051 0.237,-0.122 0.328,-0.215 C 0.128,-1.766 0.201,-1.874 0.252,-2.002 0.31,-2.125 0.336,-2.258 0.336,-2.399 0.336,-2.543 0.31,-2.678 0.252,-2.805 0.201,-2.928 0.128,-3.037 0.03,-3.133 -0.061,-3.225 -0.171,-3.301 -0.298,-3.355 -0.42,-3.406 -0.553,-3.432 -0.694,-3.432 h -2.064 v 0.681 h 2.064 c 0.1,0 0.186,0.032 0.251,0.099 0.066,0.067 0.099,0.15 0.099,0.253 0,0.096 -0.033,0.177 -0.099,0.245 -0.065,0.065 -0.151,0.098 -0.251,0.098 h -1.377 c -0.143,0 -0.278,0.025 -0.405,0.077 -0.123,0.055 -0.228,0.13 -0.321,0.221 -0.092,0.097 -0.164,0.205 -0.221,0.328 -0.051,0.128 -0.077,0.263 -0.077,0.406 0,0.142 0.026,0.275 0.077,0.396 0.057,0.129 0.129,0.237 0.221,0.33 0.093,0.092 0.198,0.162 0.321,0.214 C -2.349,-0.028 -2.214,0 -2.071,0 Z"
               style="fill:#ffffff;fill-opacity:1;fill-rule:evenodd;stroke:none"
               id="path1717" />
          </g>
          <g
             id="g1719"
             transform="matrix(1.1537297,0,0,1.1537428,395.77642,511.22333)">
            <path
               d="m 0,0 v -1.712 c 0,-0.234 -0.045,-0.456 -0.138,-0.665 -0.086,-0.208 -0.208,-0.393 -0.367,-0.551 -0.157,-0.158 -0.34,-0.282 -0.55,-0.374 -0.203,-0.087 -0.424,-0.13 -0.664,-0.13 -0.235,0 -0.456,0.043 -0.666,0.13 -0.207,0.092 -0.391,0.216 -0.549,0.374 -0.152,0.158 -0.275,0.343 -0.367,0.551 -0.087,0.209 -0.13,0.431 -0.13,0.665 V 0 h 0.681 v -1.712 c 0,-0.143 0.024,-0.277 0.076,-0.405 0.056,-0.128 0.13,-0.239 0.222,-0.336 0.098,-0.093 0.206,-0.165 0.328,-0.222 0.127,-0.051 0.263,-0.076 0.405,-0.076 0.142,0 0.278,0.025 0.406,0.076 0.127,0.057 0.236,0.129 0.328,0.222 0.097,0.097 0.171,0.208 0.221,0.336 0.056,0.128 0.084,0.262 0.084,0.405 V 0 Z"
               style="fill:#ffffff;fill-opacity:1;fill-rule:evenodd;stroke:none"
               id="path1721" />
          </g>
          <g
             id="g1723"
             transform="matrix(1.1537297,0,0,1.1537428,398.29121,508.04939)">
            <path
               d="M 0,0 C 0.142,0 0.273,0.025 0.396,0.076 0.524,0.133 0.633,0.206 0.725,0.298 0.821,0.395 0.896,0.506 0.947,0.634 1.002,0.761 1.031,0.896 1.031,1.04 V 2.07 H 0 C -0.144,2.07 -0.278,2.043 -0.405,1.986 -0.534,1.936 -0.646,1.861 -0.743,1.765 -0.833,1.673 -0.908,1.563 -0.965,1.436 -1.014,1.314 -1.041,1.182 -1.041,1.04 -1.041,0.896 -1.014,0.761 -0.965,0.634 -0.908,0.506 -0.833,0.395 -0.743,0.298 -0.646,0.206 -0.534,0.133 -0.405,0.076 -0.278,0.025 -0.144,0 0,0 M 1.712,4.126 V 1.04 C 1.712,0.805 1.665,0.583 1.573,0.374 1.487,0.166 1.363,-0.018 1.206,-0.178 1.054,-0.334 0.873,-0.459 0.664,-0.551 0.455,-0.638 0.233,-0.681 0,-0.681 c -0.235,0 -0.457,0.043 -0.666,0.13 -0.208,0.092 -0.393,0.217 -0.55,0.373 -0.157,0.16 -0.283,0.344 -0.374,0.552 -0.088,0.209 -0.131,0.431 -0.131,0.666 0,0.238 0.043,0.46 0.131,0.663 0.091,0.211 0.217,0.391 0.374,0.543 0.157,0.157 0.342,0.28 0.55,0.367 C -0.457,2.705 -0.235,2.75 0,2.75 h 1.031 v 1.376 z"
               style="fill:#ffffff;fill-opacity:1;fill-rule:evenodd;stroke:none"
               id="path1725" />
          </g>
          <path
             id="path1745"
             style="fill:#eae225;fill-opacity:1;fill-rule:nonzero;stroke:none;stroke-width:1.15373623"
             d="m 393.50726,517.67483 c -10.02822,1.35104 -20.10489,1.42949 -35.72293,0.31382 l 0.17075,0.71994 c 15.60765,1.37757 27.91103,2.10096 34.65689,1.89329 3.97806,-0.1223 5.18832,-0.41073 5.18832,-1.82176 0,-1.50563 -1.76867,-1.44679 -4.29303,-1.10529 m -29.62961,13.19594 c -0.0508,0.73493 -0.52495,2.30979 -2.64781,2.30979 -1.90135,0 -2.5209,-1.5737 -2.60051,-2.30979 z m 3.91691,-1.25989 c 0.001,-0.49842 -0.0681,-1.28758 -0.0681,-1.28758 l -9.09024,-0.003 c 0.0877,-1.47217 1.19065,-2.52208 2.74126,-2.51862 1.12604,-0.002 1.85174,0.41881 2.20709,1.19759 l 3.94575,-0.006 c -0.35996,-1.87253 -1.98095,-4.24116 -6.08361,-4.24462 -3.9423,-0.009 -6.68587,3.1001 -6.68933,6.85554 -0.001,3.80043 2.48744,6.62479 6.41243,6.6294 3.95037,0 6.62356,-2.84743 6.62472,-6.62248 m 11.85665,-0.0832 c -0.003,1.68907 -0.93683,3.26624 -3.11623,3.26393 -2.18516,-0.003 -2.88547,-1.76061 -2.88547,-3.27778 0.002,-1.59563 0.85376,-3.32509 3.05738,-3.32624 2.259,0.008 2.94432,1.82176 2.94432,3.34009 m 3.7127,-6.30175 -3.66194,-0.0242 0.009,1.4468 -0.14191,-0.002 c -0.61032,-1.22989 -1.83212,-1.90483 -3.7277,-1.90944 -3.21198,-0.007 -5.99478,2.63168 -5.99824,6.78285 -0.003,4.20655 2.5359,6.71363 5.76519,6.71478 1.78943,0.005 3.26967,-0.73493 3.92845,-1.83676 l 0.14191,0.003 -0.006,1.42026 h 3.67694 z m 14.38538,3.47715 c 0.001,-2.88205 -3.16006,-3.95964 -6.13207,-3.96195 -2.96855,0 -6.05824,1.14105 -6.06054,3.98157 h 3.90653 c 0,-0.88839 1.23103,-1.22413 2.15747,-1.22297 0.91145,10e-4 2.09287,0.24228 2.09287,1.10067 -0.001,1.08106 -1.4687,1.23681 -3.77616,1.83676 -2.3963,0.62879 -4.10266,1.67639 -4.10497,3.93311 -0.002,2.86705 2.79318,3.84888 5.78018,3.8535 2.95355,0 5.65328,-0.97838 5.65559,-3.84312 l -3.85923,-0.0127 c 0,0.79724 -0.97951,1.10528 -1.79636,1.10298 -0.8226,-0.002 -1.79058,-0.19845 -1.79058,-0.98645 0.005,-1.08337 1.64983,-1.21951 3.50849,-1.67408 2.37553,-0.57687 4.41532,-1.54371 4.41878,-4.10733 m 13.51352,9.12853 -6.87623,-18.03069 -3.95383,0.0115 2.59359,5.87947 -4.6703,12.12814 h 3.94345 l 2.54628,-7.82237 0.14191,0.002 2.35707,7.83046 z" />
        </g>
      </g>
    </g>
  </g>
</svg>
